<?xml version="1.0" encoding="utf-8"?>
<!-- Generator: Adobe Illustrator 18.0.0, SVG Export Plug-In . SVG Version: 6.00 Build 0)  -->
<!DOCTYPE svg PUBLIC "-//W3C//DTD SVG 1.1//EN" "http://www.w3.org/Graphics/SVG/1.1/DTD/svg11.dtd">
<svg version="1.1" id="Layer_1" xmlns="http://www.w3.org/2000/svg" xmlns:xlink="http://www.w3.org/1999/xlink" x="0px" y="0px"
	 viewBox="0 0 364.3 211.3" enable-background="new 0 0 364.3 211.3" xml:space="preserve">
<g>
	<g>
		<g>
			
				<path fill="#003B71" stroke="#FFFFFF" stroke-width="7.1954" stroke-linecap="round" stroke-linejoin="round" stroke-miterlimit="10" d="
				M188.5,111.9"/>
		</g>
	</g>
	<g>
		<g>
			<g>
				<path fill="#003B71" d="M251.3,107.5c-1.2,0-2.2-1-2.2-2.2V18.1c0-1.9-1.4-3.5-3.2-3.8c0,0,0,0-0.1,0
					c-21.7-3.8-54.3-9.5-57.6-10l-57.2,10c0,0,0,0-0.1,0c-1.9,0.3-3.3,1.9-3.3,3.8v86.9c0,1.2-1,2.2-2.2,2.2c-1.2,0-2.2-1-2.2-2.2
					V18.2c0-4,3-7.5,6.9-8.1L187.8,0c0,0,0,0,0.1,0c0.5-0.1,0.9-0.1,58.7,10.1c3.9,0.6,6.9,4,6.9,8v87.2
					C253.5,106.5,252.5,107.5,251.3,107.5z"/>
			</g>
		</g>
		<g>
			<g>
				<g>
					<g>
						
							<ellipse transform="matrix(-0.9855 0.1699 -0.1699 -0.9855 398.6494 34.8801)" fill="#003B71" cx="197.8" cy="34.5" rx="5.6" ry="7.5"/>
					</g>
				</g>
			</g>
			<g>
				<g>
					<g>
						
							<ellipse transform="matrix(-0.9986 -5.234414e-002 5.234414e-002 -0.9986 416.411 78.0522)" fill="#003B71" cx="209.2" cy="33.6" rx="4.4" ry="6"/>
					</g>
				</g>
			</g>
			<g>
				<g>
					<g>
						
							<ellipse transform="matrix(-0.9423 -0.3348 0.3348 -0.9423 412.4331 142.5591)" fill="#003B71" cx="218.5" cy="35.7" rx="3.7" ry="5.1"/>
					</g>
				</g>
			</g>
			<g>
				<g>
					<g>
						
							<ellipse transform="matrix(-0.8275 -0.5615 0.5615 -0.8275 390.4187 200.0885)" fill="#003B71" cx="225.9" cy="40.1" rx="3.5" ry="4.7"/>
					</g>
				</g>
			</g>
			<g>
				<g>
					<g>
						
							<ellipse transform="matrix(-0.7957 -0.6057 0.6057 -0.7957 386.5312 221.2867)" fill="#003B71" cx="230.6" cy="45.5" rx="2.4" ry="3.3"/>
					</g>
				</g>
			</g>
			<g>
				<g>
					<g>
						<path fill="#003B71" d="M231,62.6c-0.2,5.3-1.7,10.3-3.6,15.2c-1.8,4.6-3.8,9.1-6.1,13.6c-1.5,3-3.2,5.9-5.3,8.5
							c-1.7,2.1-3.5,3.8-5.9,5c-1.6,0.8-3.2,1.1-4.9,1.4c-2.2,0.3-4.2,0-6.1-1c-2.8-1.5-4.4-4-5.2-7.2c-0.6-2.7-0.4-5.5,0.5-8.3
							c0.5-1.6,1.4-3.1,2.4-4.5c1.2-1.9,2.2-3.8,2.8-5.9c1-3.1,0.7-5.9-0.8-8.6c-0.8-1.3-1.6-2.6-2.4-4c-1.1-1.8-2-3.7-2.3-5.9
							c-0.4-2.3-0.2-4.6,0.3-7c0.3-1.5,0.7-2.9,1.4-4.3c1.2-2.2,2.9-3.9,5-5.1c2.9-1.7,6.1-2.5,9.3-2.4c4.2,0.1,8.2,1,11.9,2.9
							c3,1.6,5.5,3.9,7.1,7.1C230.6,55.2,231.2,58.9,231,62.6z"/>
					</g>
				</g>
			</g>
		</g>
		<g>
			<g>
				<g>
					<g>
						
							<ellipse transform="matrix(0.9855 0.1699 -0.1699 0.9855 6.9287 -30.6879)" fill="#003B71" cx="182.8" cy="25.1" rx="6.3" ry="8.5"/>
					</g>
				</g>
			</g>
			<g>
				<g>
					<g>
						
							<ellipse transform="matrix(0.9986 -5.234963e-002 5.234963e-002 0.9986 -1.0287 8.9279)" fill="#003B71" cx="169.9" cy="24.1" rx="5" ry="6.8"/>
					</g>
				</g>
			</g>
			<g>
				<g>
					<g>
						
							<ellipse transform="matrix(0.9423 -0.3348 0.3348 0.9423 0.3166 54.9145)" fill="#003B71" cx="159.4" cy="26.5" rx="4.2" ry="5.7"/>
					</g>
				</g>
			</g>
			<g>
				<g>
					<g>
						
							<ellipse transform="matrix(0.8275 -0.5615 0.5615 0.8275 8.4008 90.2182)" fill="#003B71" cx="151" cy="31.4" rx="3.9" ry="5.3"/>
					</g>
				</g>
			</g>
			<g>
				<g>
					<g>
						
							<ellipse transform="matrix(0.7957 -0.6057 0.6057 0.7957 7.0494 95.9631)" fill="#003B71" cx="145.8" cy="37.5" rx="2.7" ry="3.7"/>
					</g>
				</g>
			</g>
			<g>
				<g>
					<g>
						<path fill="#003B71" d="M145.3,56.9c0.3,5.9,1.9,11.6,4.1,17.2c2.1,5.2,4.3,10.3,6.9,15.3c1.7,3.4,3.6,6.6,6,9.6
							c1.9,2.3,4,4.4,6.7,5.6c1.8,0.9,3.7,1.3,5.6,1.6c2.4,0.3,4.8,0,6.9-1.1c3.2-1.7,5-4.5,5.9-8.1c0.7-3.1,0.5-6.2-0.5-9.4
							c-0.6-1.8-1.6-3.5-2.7-5.1c-1.3-2.1-2.5-4.3-3.2-6.7c-1.1-3.5-0.8-6.7,0.9-9.7c0.9-1.5,1.8-3,2.7-4.5c1.2-2.1,2.2-4.2,2.6-6.7
							c0.4-2.6,0.3-5.2-0.3-7.9c-0.4-1.7-0.8-3.3-1.6-4.9c-1.3-2.5-3.3-4.4-5.7-5.8c-3.3-2-6.9-2.8-10.5-2.7
							c-4.8,0.1-9.3,1.1-13.5,3.3c-3.4,1.8-6.2,4.4-8,8C145.8,48.6,145.1,52.7,145.3,56.9z"/>
					</g>
				</g>
			</g>
		</g>
	</g>
	<g>
		<g>
			<path fill="#003B71" d="M18.2,206.6c-0.8,0.5-1.8,0.9-3,0.9c-3.3,0-5.2-2.3-5.2-5.4c0-3.1,1.9-5.4,5.2-5.4c1.2,0,2.2,0.3,3,0.9
				l-0.6,0.6c-0.7-0.5-1.5-0.7-2.5-0.7c-2.8,0-4.3,1.9-4.3,4.6c0,2.7,1.6,4.6,4.3,4.6c1,0,1.8-0.3,2.5-0.7L18.2,206.6z"/>
		</g>
		<g>
			<path fill="#003B71" d="M21.6,204.2c0,0.8,0.2,1.5,0.6,1.9c0.4,0.4,0.9,0.6,1.7,0.6v0.7c-1,0-1.8-0.2-2.3-0.7
				c-0.5-0.5-0.8-1.4-0.8-2.4v-7.8h0.9V204.2z"/>
		</g>
		<g>
			<path fill="#003B71" d="M25.6,199l-0.4-0.5l2.4-2l0.4,0.5L25.6,199z M26.1,207.3v-7.4h0.9v7.4H26.1z"/>
		</g>
		<g>
			<path fill="#003B71" d="M30.4,201c1-0.9,1.7-1.3,2.9-1.3c1.5,0,3.2,0.9,3.2,2.8v4.9h-0.9v-4.7c0-1.5-1.3-2.2-2.5-2.2
				c-1,0-1.6,0.4-2.6,1.3v5.6h-0.9v-7.4h0.8L30.4,201z"/>
		</g>
		<g>
			<path fill="#003B71" d="M40.2,197.6c0,0.3-0.2,0.5-0.5,0.5c-0.3,0-0.5-0.2-0.5-0.5c0-0.3,0.2-0.5,0.5-0.5
				C40,197.1,40.2,197.3,40.2,197.6z M39.3,207.3v-7.4h0.9v7.4H39.3z"/>
		</g>
		<g>
			<path fill="#003B71" d="M48.6,206.9c-0.6,0.4-1.4,0.6-2.2,0.6c-2.4,0-3.9-1.7-3.9-3.9c0-2.2,1.4-3.9,3.9-3.9
				c0.9,0,1.7,0.2,2.1,0.5l-0.5,0.5c-0.3-0.2-0.9-0.4-1.6-0.4c-1.9,0-3.1,1.4-3.1,3.2c0,1.9,1.2,3.2,3.1,3.2c0.5,0,1.2-0.1,1.7-0.4
				L48.6,206.9z"/>
		</g>
		<g>
			<path fill="#003B71" d="M51.1,200.4c0.8-0.4,1.8-0.7,2.8-0.7c1.6,0,3.3,0.9,3.3,2.8v4.9h-0.8l0-1.1c-0.8,0.9-1.9,1.3-3,1.3
				c-1.5,0-2.9-0.8-2.9-2.4c0-1.7,1.6-2.5,3.2-2.5c0.9,0,1.9,0.2,2.6,0.7v-0.8c0-1.4-1.3-2.1-2.6-2.1c-0.9,0-1.8,0.3-2.4,0.6
				L51.1,200.4z M56.3,203.8c-0.7-0.4-1.6-0.7-2.5-0.7c-1.3,0-2.5,0.5-2.5,1.8c0,1.2,1.1,1.8,2.3,1.8c1,0,2-0.3,2.7-1.3V203.8z"/>
		</g>
		<g>
			<path fill="#003B71" d="M70.3,207.3l0-1.1c-0.8,1-1.9,1.3-2.7,1.3c-2.2,0-3.5-1.5-3.5-3.9c0-2.4,1.1-3.9,3.4-3.9
				c0.9,0,1.6,0.2,2.8,1.3v-4.6h0.9v11H70.3z M70.2,201.7c-1.2-1.1-1.8-1.3-2.6-1.3c-1.9,0-2.7,1.2-2.7,3.2c0,1.9,1,3.2,2.9,3.2
				c0.8,0,1.8-0.3,2.5-1.4L70.2,201.7z"/>
		</g>
		<g>
			<path fill="#003B71" d="M80.2,206.7c-0.8,0.5-1.8,0.8-2.8,0.8c-2.4,0-3.9-1.7-3.9-3.9c0-2.2,1.3-3.9,3.8-3.9
				c2.3,0,3.6,1.2,3.6,3.4c0,0.3,0,0.6-0.1,1h-6.4c0.2,1.7,1.3,2.8,3,2.8c0.8,0,1.7-0.2,2.5-0.6L80.2,206.7z M79.9,203.5
				c0-0.2,0-0.4,0-0.6c0-1.8-1-2.6-2.7-2.6c-1.9,0-2.9,1.3-2.9,3l0,0.2H79.9z"/>
		</g>
		<g>
			<path fill="#003B71" d="M88.7,204.2c0,0.8,0.2,1.5,0.6,1.9c0.4,0.4,0.9,0.6,1.7,0.6v0.7c-1,0-1.8-0.2-2.3-0.7
				c-0.5-0.5-0.8-1.4-0.8-2.4v-7.8h0.9V204.2z"/>
		</g>
		<g>
			<path fill="#003B71" d="M96.2,199.6c2.5,0,3.9,1.6,3.9,3.9c0,2.3-1.4,3.9-3.9,3.9c-2.5,0-3.9-1.7-3.9-3.9
				C92.3,201.3,93.7,199.6,96.2,199.6L96.2,199.6z M93.2,203.6c0,1.9,1.1,3.2,3,3.2c1.9,0,3-1.3,3-3.2c0-2-1.2-3.2-3-3.2
				C94.3,200.3,93.2,201.6,93.2,203.6z"/>
		</g>
		<g>
			<path fill="#003B71" d="M102.1,205.9c0.6,0.5,1.7,0.9,2.8,0.9c1.2,0,2.3-0.4,2.3-1.5c0-1.2-1.1-1.3-2.4-1.6
				c-1.5-0.3-2.6-0.6-2.6-2c0-1.4,1.5-2.1,3.1-2.1c0.9,0,1.8,0.2,2.5,0.6l-0.3,0.6c-0.6-0.4-1.5-0.6-2.3-0.6c-1.2,0-2.2,0.5-2.2,1.4
				c0,0.9,0.8,1.2,1.8,1.3c1.7,0.3,3.2,0.5,3.2,2.2c0,1.4-1.6,2.1-3.1,2.1c-1.2,0-2.5-0.4-3.1-1L102.1,205.9z"/>
		</g>
		<g>
			<path fill="#003B71" d="M115.8,201c0.8-1,1.9-1.3,2.7-1.3c2.3,0,3.5,1.5,3.5,3.9c0,2.4-1.1,3.9-3.4,3.9c-0.9,0-1.6-0.2-2.8-1.3
				v4.6H115v-11h0.8L115.8,201z M115.8,205.4c1.2,1.1,1.8,1.3,2.6,1.3c1.9,0,2.7-1.2,2.7-3.2c0-1.9-1-3.2-2.9-3.2
				c-0.8,0-1.8,0.3-2.5,1.4V205.4z"/>
		</g>
		<g>
			<path fill="#003B71" d="M125.5,197.6c0,0.3-0.2,0.5-0.5,0.5c-0.3,0-0.5-0.2-0.5-0.5c0-0.3,0.2-0.5,0.5-0.5
				C125.3,197.1,125.5,197.3,125.5,197.6z M124.6,207.3v-7.4h0.9v7.4H124.6z"/>
		</g>
		<g>
			<path fill="#003B71" d="M134.6,206.7c-0.8,0.5-1.8,0.8-2.8,0.8c-2.4,0-3.9-1.7-3.9-3.9c0-2.2,1.3-3.9,3.8-3.9
				c2.3,0,3.6,1.2,3.6,3.4c0,0.3,0,0.6-0.1,1h-6.4c0.2,1.7,1.3,2.8,3,2.8c0.8,0,1.7-0.2,2.5-0.6L134.6,206.7z M134.3,203.5
				c0-0.2,0-0.4,0-0.6c0-1.8-1-2.6-2.7-2.6c-1.9,0-2.9,1.3-2.9,3l0,0.2H134.3z"/>
		</g>
		<g>
			<path fill="#003B71" d="M137,205.9c0.6,0.5,1.7,0.9,2.8,0.9c1.2,0,2.3-0.4,2.3-1.5c0-1.2-1.1-1.3-2.4-1.6c-1.5-0.3-2.6-0.6-2.6-2
				c0-1.4,1.5-2.1,3.1-2.1c0.9,0,1.8,0.2,2.5,0.6l-0.3,0.6c-0.6-0.4-1.5-0.6-2.3-0.6c-1.2,0-2.2,0.5-2.2,1.4c0,0.9,0.8,1.2,1.8,1.3
				c1.7,0.3,3.2,0.5,3.2,2.2c0,1.4-1.6,2.1-3.1,2.1c-1.2,0-2.5-0.4-3.1-1L137,205.9z"/>
		</g>
		<g>
			<path fill="#003B71" d="M152.7,208.7c-0.3,0.8-0.8,1.4-1.4,1.7c-0.6,0.4-1.4,0.5-2.1,0.5v-0.7c0.7,0,1.3-0.2,1.8-0.5
				c0.5-0.3,0.8-0.8,1.1-1.4l0.5-1.2h-0.2l-3.1-7.4h0.9l2.6,6.6l2.6-6.6h0.9L152.7,208.7z"/>
		</g>
		<g>
			<path fill="#003B71" d="M162.4,205.9c0.6,0.5,1.7,0.9,2.8,0.9c1.2,0,2.3-0.4,2.3-1.5c0-1.2-1.1-1.3-2.4-1.6
				c-1.5-0.3-2.6-0.6-2.6-2c0-1.4,1.5-2.1,3.1-2.1c0.9,0,1.8,0.2,2.5,0.6l-0.3,0.6c-0.6-0.4-1.5-0.6-2.3-0.6c-1.2,0-2.2,0.5-2.2,1.4
				c0,0.9,0.8,1.2,1.8,1.3c1.7,0.3,3.2,0.5,3.2,2.2c0,1.4-1.6,2.1-3.1,2.1c-1.2,0-2.5-0.4-3.1-1L162.4,205.9z"/>
		</g>
		<g>
			<path fill="#003B71" d="M176.5,207.3l0-1.1c-1,0.9-1.7,1.3-2.9,1.3c-1.5,0-3.2-0.9-3.2-2.8v-4.9h0.9v4.7c0,1.5,1.3,2.2,2.5,2.2
				c1,0,1.6-0.4,2.6-1.3v-5.6h0.9v7.4H176.5z"/>
		</g>
		<g>
			<path fill="#003B71" d="M179.5,205.9c0.6,0.5,1.7,0.9,2.8,0.9c1.2,0,2.3-0.4,2.3-1.5c0-1.2-1.1-1.3-2.4-1.6
				c-1.5-0.3-2.6-0.6-2.6-2c0-1.4,1.5-2.1,3.1-2.1c0.9,0,1.8,0.2,2.5,0.6l-0.3,0.6c-0.6-0.4-1.5-0.6-2.3-0.6c-1.2,0-2.2,0.5-2.2,1.4
				c0,0.9,0.8,1.2,1.8,1.3c1.7,0.3,3.2,0.5,3.2,2.2c0,1.4-1.6,2.1-3.1,2.1c-1.2,0-2.5-0.4-3.1-1L179.5,205.9z"/>
		</g>
		<g>
			<path fill="#003B71" d="M221.2,206.6c-0.9,0.6-2,0.9-3.2,0.9c-2.7,0-4.3-1.8-4.3-4.4c0-2.5,1.5-4.4,4.2-4.4c2.5,0,4,1.3,4,3.8
				c0,0.3,0,0.7-0.1,1.1h-7.1c0.2,1.9,1.4,3.1,3.3,3.1c0.9,0,1.9-0.2,2.8-0.7L221.2,206.6z M221,203c0-0.2,0-0.5,0-0.7
				c0-2-1.1-2.9-3.1-2.9c-2.1,0-3.2,1.4-3.3,3.4l0,0.2H221z"/>
		</g>
		<g>
			<path fill="#003B71" d="M225.2,200.3c1.1-1,1.9-1.5,3.2-1.5c1.7,0,3.5,1,3.5,3.1v5.4h-1V202c0-1.7-1.4-2.5-2.8-2.5
				c-1.1,0-1.8,0.4-2.9,1.5v6.3h-1V199h0.9L225.2,200.3z"/>
		</g>
		<g>
			<path fill="#003B71" d="M239.9,195.6c-1.1,0-1.9,0.3-2.5,0.8c-0.7,0.6-1,1.4-1,2.6h2.7v0.7h-2.7v7.6h-1v-7.6H234V199h1.5
				c0-1.5,0.4-2.5,1.3-3.2c0.8-0.6,1.8-1,3.1-0.9V195.6z"/>
		</g>
		<g>
			<path fill="#003B71" d="M248,206.6c-0.9,0.6-2,0.9-3.2,0.9c-2.7,0-4.3-1.8-4.3-4.4c0-2.5,1.5-4.4,4.2-4.4c2.5,0,4,1.3,4,3.8
				c0,0.3,0,0.7-0.1,1.1h-7.1c0.2,1.9,1.4,3.1,3.3,3.1c0.9,0,1.9-0.2,2.8-0.7L248,206.6z M247.8,203c0-0.2,0-0.5,0-0.7
				c0-2-1.1-2.9-3.1-2.9c-2.1,0-3.2,1.4-3.3,3.4l0,0.2H247.8z"/>
		</g>
		<g>
			<path fill="#003B71" d="M255.3,199.5l-0.2,0c-1,0-2.1,0.5-2.9,1.7v6h-1V199h0.9l0,1.5c0.8-1.1,1.9-1.7,3.1-1.7l0.1,0V199.5z"/>
		</g>
		<g>
			<path fill="#003B71" d="M258.2,200.2c1-1,1.7-1.5,2.9-1.5c1.1,0,2.2,0.5,2.8,1.5c1.2-1.1,2-1.5,3.2-1.5c1.6,0,3.3,1,3.3,3.1v5.4
				h-1V202c0-1.7-1.3-2.5-2.5-2.5c-0.9,0-1.6,0.2-2.8,1.4c0.1,0.3,0.2,0.6,0.2,1v5.4h-1V202c0-1.7-1.3-2.5-2.5-2.5
				c-1,0-1.6,0.4-2.6,1.4v6.3h-1V199h0.9L258.2,200.2z"/>
		</g>
		<g>
			<path fill="#003B71" d="M280.2,206.6c-0.9,0.6-2,0.9-3.2,0.9c-2.7,0-4.3-1.8-4.3-4.4c0-2.5,1.5-4.4,4.2-4.4c2.5,0,4,1.3,4,3.8
				c0,0.3,0,0.7-0.1,1.1h-7.1c0.2,1.9,1.4,3.1,3.3,3.1c0.9,0,1.9-0.2,2.8-0.7L280.2,206.6z M280,203c0-0.2,0-0.5,0-0.7
				c0-2-1.1-2.9-3.1-2.9c-2.1,0-3.2,1.4-3.3,3.4l0,0.2H280z"/>
		</g>
		<g>
			<path fill="#003B71" d="M289.9,207.3l0-1.2c-0.9,1.1-2.1,1.4-3.1,1.4c-2.5,0-3.9-1.7-3.9-4.4c0-2.7,1.3-4.4,3.8-4.4
				c1,0,1.8,0.2,3.2,1.4V195h1v12.2H289.9z M289.8,201c-1.4-1.3-2-1.5-3-1.5c-2.1,0-3,1.4-3,3.6c0,2.1,1.1,3.6,3.2,3.6
				c0.9,0,2-0.3,2.8-1.5V201z"/>
		</g>
		<g>
			<path fill="#003B71" d="M293.9,199.6c0.9-0.5,2-0.8,3.1-0.8c1.8,0,3.7,1,3.7,3.1v5.4h-0.9l0-1.2c-0.9,1-2.1,1.5-3.3,1.5
				c-1.7,0-3.2-0.9-3.2-2.7c0-1.9,1.7-2.7,3.6-2.7c1,0,2.1,0.3,2.9,0.7v-0.9c0-1.6-1.5-2.4-2.9-2.4c-1,0-2,0.3-2.7,0.7L293.9,199.6z
				 M299.7,203.4c-0.7-0.5-1.8-0.8-2.8-0.8c-1.5,0-2.8,0.6-2.8,2.1c0,1.3,1.2,2,2.6,2c1.1,0,2.2-0.4,3-1.4V203.4z"/>
		</g>
		<g>
			<path fill="#003B71" d="M310.1,207.3l0-1.2c-0.9,1.1-2.1,1.4-3.1,1.4c-2.5,0-3.9-1.7-3.9-4.4c0-2.7,1.3-4.4,3.8-4.4
				c1,0,1.8,0.2,3.2,1.4V195h1v12.2H310.1z M310,201c-1.4-1.3-2-1.5-3-1.5c-2.1,0-3,1.4-3,3.6c0,2.1,1.1,3.6,3.2,3.6
				c0.9,0,2-0.3,2.8-1.5V201z"/>
		</g>
		<g>
			<path fill="#003B71" d="M321,206.6c-0.9,0.6-2,0.9-3.2,0.9c-2.7,0-4.3-1.8-4.3-4.4c0-2.5,1.5-4.4,4.2-4.4c2.5,0,4,1.3,4,3.8
				c0,0.3,0,0.7-0.1,1.1h-7.1c0.2,1.9,1.4,3.1,3.3,3.1c0.9,0,1.9-0.2,2.8-0.7L321,206.6z M320.8,203c0-0.2,0-0.5,0-0.7
				c0-2-1.1-2.9-3.1-2.9c-2.1,0-3.2,1.4-3.3,3.4l0,0.2H320.8z"/>
		</g>
		<g>
			<path fill="#003B71" d="M323.7,205.7c0.6,0.6,1.9,1,3.2,1c1.3,0,2.5-0.5,2.5-1.6c0-1.3-1.3-1.5-2.7-1.7c-1.6-0.3-2.9-0.6-2.9-2.2
				c0-1.6,1.7-2.3,3.4-2.3c1,0,2.1,0.2,2.8,0.7l-0.3,0.6c-0.7-0.4-1.6-0.6-2.5-0.6c-1.3,0-2.5,0.5-2.5,1.6c0,1,0.9,1.3,2,1.5
				c1.9,0.3,3.6,0.5,3.6,2.5c0,1.6-1.7,2.3-3.4,2.3c-1.3,0-2.8-0.4-3.5-1.1L323.7,205.7z"/>
		</g>
	</g>
	<g>
		<g>
			<path fill="#003B71" d="M69.1,162.4c-3.1,16.7-16.5,26.5-33.6,26.5C15.6,188.9,0,173.7,0,154.1c0-19.5,15.6-34.8,35.4-34.8
				c16.4,0,30.4,9.8,33.5,25.6l-16.1,3.8c-2.1-9.7-8.9-14.3-17.4-14.3c-10.5,0-19,8.5-19,19.8c0,11.3,8.5,19.9,19,19.9
				c8.5,0,15.2-4.8,17.5-14.7L69.1,162.4z"/>
		</g>
		<g>
			<path fill="#003B71" d="M91.1,170.4c0,2.6,1.9,4.4,4.8,4.4c1.4,0,3.5-0.6,5.8-1.4l2.5,12.4c-2.9,1.4-6,3.1-11.7,3.1
				c-10.3,0-17.2-7-17.2-17.3v-60.8h15.9V170.4z"/>
		</g>
		<g>
			<path fill="#003B71" d="M125.1,122.7c0,5.1-3.9,8.9-9.3,8.9c-5.4,0-9.2-3.8-9.2-8.9c0-4.9,3.8-9.1,9.2-9.1
				C121.2,113.7,125.1,117.8,125.1,122.7z M107.9,187.4v-50h15.9v50H107.9z"/>
		</g>
		<g>
			<path fill="#003B71" d="M184.3,156.7v30.6h-15.8v-27.3c0-5.9-3.5-9.9-8.6-9.9c-6.3,0-10.3,4.3-10.3,13.9v23.2h-15.9v-50h15.9v4.8
				c3.8-4,9.1-6.3,15.3-6.3C176.5,135.9,184.3,144.2,184.3,156.7z"/>
		</g>
		<g>
			<path fill="#003B71" d="M248.5,162.4c0,15.8-11.1,26.5-24.4,26.5c-6.5,0-11.6-2-15.5-5.5v27.9h-15.9v-73.8h15.9v4
				c3.9-3.5,9.1-5.5,15.5-5.5C237.3,135.9,248.5,146.7,248.5,162.4z M232.9,162.4c0-7.7-5.1-12.9-12-12.9c-6.5,0-12.2,5.3-12.2,12.9
				c0,7.8,5.8,12.9,12.2,12.9C227.8,175.3,232.9,170.2,232.9,162.4z"/>
		</g>
		<g>
			<path fill="#003B71" d="M306,162.4c0,15.8-12.5,26.4-27.4,26.4c-15.1,0-27.7-10.5-27.7-26.4c0-15.7,12.5-26.3,27.7-26.3
				C293.5,136.1,306,146.7,306,162.4z M290.7,162.4c0-7.8-5.9-12.9-12-12.9c-6.5,0-12.3,5.2-12.3,12.9c0,7.9,5.9,12.9,12.3,12.9
				C284.8,175.3,290.7,170.3,290.7,162.4z"/>
		</g>
		<g>
			<path fill="#003B71" d="M364.3,187.4h-15.9v-4c-3.9,3.5-9.1,5.5-15.5,5.5c-13.2,0-24.4-10.6-24.4-26.5
				c0-15.7,11.1-26.5,24.4-26.5c6.5,0,11.6,2,15.5,5.5v-30.6h15.9V187.4z M348.4,162.4c0-7.7-5.8-12.9-12.2-12.9
				c-7,0-12,5.3-12,12.9c0,7.8,5.1,12.9,12,12.9C342.6,175.3,348.4,170.2,348.4,162.4z"/>
		</g>
	</g>
	<g>
		<g>
			<path fill="#003B71" d="M356.3,199.2c0.1-0.1,0.1-0.1,0.1-0.1c0.3-0.4,0.7-0.8,1-1.2c0.2-0.2,0.4-0.5,0.6-0.7
				c0.2-0.3,0.5-0.5,0.7-0.8c0.1-0.1,0.2-0.1,0.3-0.1c1.2,0,2.4,0,3.6,0c0.2,0,0.3,0,0.5,0c0.1,0,0.2,0,0.3,0.1
				c-0.1,0.1-0.2,0.3-0.3,0.4c-0.3,0.3-0.5,0.6-0.8,0.9c-0.5,0.6-1,1.2-1.5,1.8c-0.5,0.6-1,1.1-1.5,1.7c-0.4,0.5-0.9,1-1.3,1.5
				c0,0,0,0.1-0.1,0.1c-0.2,0.2-0.2,0.3-0.1,0.5c0.1,0.3,0.3,0.6,0.4,1c0.2,0.6,0.5,1.1,0.8,1.7c0.2,0.4,0.5,0.9,0.9,1.3
				c0.4,0.3,0.8,0.6,1.3,0.7c0.5,0.1,0.9,0.2,1.4,0.2c0.5,0,1,0,1.4,0c0,0,0,0,0.1,0c-0.2,0.2-0.4,0.3-0.6,0.4
				c-0.2,0.1-0.5,0.3-0.7,0.4c-0.7,0.3-1.5,0.5-2.3,0.5c-0.8,0-1.6-0.1-2.4-0.3c-0.9-0.3-1.6-0.8-2.1-1.4c-0.3-0.4-0.5-0.8-0.7-1.1
				c-0.1-0.2-0.2-0.4-0.3-0.7c-0.1,0.1-0.2,0.2-0.2,0.2c-0.4,0.3-0.8,0.7-1.3,1c-0.5,0.3-1.1,0.7-1.7,1c-0.4,0.2-0.9,0.4-1.3,0.5
				c-0.9,0.4-2,0.6-3,0.8c-0.5,0.1-1,0.1-1.4,0.2c-0.3,0-0.6,0.1-1,0c-0.5,0-1.1-0.1-1.6-0.1c-0.6-0.1-1.2-0.2-1.7-0.4
				c-0.5-0.2-1-0.3-1.4-0.6c-0.3-0.2-0.6-0.3-0.8-0.5c-0.5-0.4-0.9-0.8-1.1-1.3c-0.2-0.4-0.3-0.7-0.4-1.1c-0.1-0.5,0-0.9,0.1-1.4
				c0.2-0.8,0.5-1.6,1-2.4c0.3-0.6,0.7-1.1,1.2-1.6c0.3-0.3,0.6-0.6,0.9-0.8c0.2-0.2,0.4-0.4,0.7-0.6c0.6-0.4,1.2-0.8,1.9-1.2
				c1-0.5,2.1-0.9,3.3-1.2c0.6-0.2,1.3-0.3,2-0.3c0.4,0,0.8-0.1,1.2-0.1c0.7,0,1.4,0.1,2.1,0.3c0.6,0.2,1.2,0.4,1.7,0.8
				c0.5,0.3,0.8,0.7,1.1,1c0.2,0.3,0.5,0.6,0.6,0.9C356.2,199,356.2,199.1,356.3,199.2z M342.4,205.4c0,0.1,0,0.4,0.1,0.6
				c0.1,0.5,0.4,1,0.9,1.3c0.7,0.4,1.6,0.5,2.5,0.4c0.5-0.1,1-0.2,1.5-0.4c0.7-0.3,1.3-0.6,1.8-1c0.4-0.2,0.8-0.5,1.1-0.8
				c0.4-0.3,0.7-0.5,1.1-0.8c0.3-0.3,0.6-0.6,0.9-0.8c0.4-0.4,0.8-0.8,1.1-1.2c0.1-0.1,0.2-0.3,0.2-0.4c-0.1-0.3-0.2-0.6-0.3-0.9
				c-0.2-0.5-0.4-1-0.6-1.4c-0.3-0.6-0.7-1.2-1.3-1.6c-0.3-0.2-0.6-0.3-0.9-0.4c-0.7-0.2-1.4-0.1-2.1,0.1c-0.5,0.2-1,0.4-1.4,0.6
				c-0.6,0.4-1.1,0.8-1.6,1.2c-0.5,0.5-1,1-1.3,1.5c-0.5,0.6-0.9,1.2-1.2,1.9C342.6,203.9,342.4,204.6,342.4,205.4z"/>
		</g>
	</g>
</g>
</svg>
